<mxfile host="app.diagrams.net" modified="2023-08-28T20:39:19.254Z" agent="Mozilla/5.0 (Windows NT 10.0; Win64; x64) AppleWebKit/537.36 (KHTML, like Gecko) Chrome/114.0.0.0 Safari/537.36 OPR/100.0.0.0" version="21.6.9" etag="N9guykJL5J-BlNrypc60" type="github">
  <diagram name="PÃ¡gina-1" id="OIrg8ATdBYxbr8aZOsoK">
    <mxGraphModel>
      <root>
        <mxCell id="0" />
        <mxCell id="1" parent="0" />
      </root>
    </mxGraphModel>
  </diagram>
</mxfile>
